<?xml version="1.0" standalone="no"?>
<!DOCTYPE svg PUBLIC "-//W3C//DTD SVG 20010904//EN"
 "http://www.w3.org/TR/2001/REC-SVG-20010904/DTD/svg10.dtd">
<svg version="1.0" xmlns="http://www.w3.org/2000/svg"
 width="512.000000pt" height="512.000000pt" viewBox="0 0 512.000000 512.000000"
 preserveAspectRatio="xMidYMid meet">

<g transform="translate(0.000000,512.000000) scale(0.100000,-0.100000)"
fill="#000000" stroke="none">
<path d="M2545 5108 c-27 -5 -88 -27 -134 -49 -147 -72 -255 -204 -296 -364
-12 -48 -15 -138 -15 -495 l0 -435 -762 3 c-526 2 -778 -1 -814 -8 -139 -29
-259 -125 -322 -257 -37 -78 -37 -79 -40 -229 -4 -144 -3 -153 17 -173 13 -13
34 -21 53 -21 65 0 78 28 78 168 0 76 5 126 17 162 22 69 96 150 165 181 l53
24 729 3 c803 3 802 3 891 -58 47 -32 92 -91 116 -150 11 -29 14 -168 17 -761
l3 -727 -118 -4 c-102 -3 -126 -8 -178 -32 -95 -43 -162 -118 -199 -222 -8
-24 -53 -65 -181 -164 l-170 -132 -5 111 c-4 98 -8 113 -28 133 l-23 23 -437
5 -437 5 -54 30 c-66 37 -115 92 -141 162 -19 51 -20 78 -20 467 0 403 -1 414
-21 440 -26 33 -79 36 -109 6 -19 -19 -20 -33 -20 -449 0 -469 2 -490 63 -593
37 -64 128 -145 200 -179 90 -41 166 -48 545 -49 l332 0 0 -153 c0 -166 3
-175 57 -191 30 -10 42 -2 240 151 96 74 180 136 188 139 12 5 15 -62 17 -463
l3 -468 28 -53 c37 -70 97 -128 166 -161 56 -26 58 -26 329 -29 l272 -3 0 -89
c0 -49 5 -100 11 -113 12 -26 47 -47 77 -47 9 0 89 56 178 124 l160 123 90 5
c152 7 255 73 315 202 23 50 30 80 34 161 4 55 2 114 -2 130 -12 40 -64 67
-103 54 -39 -14 -50 -47 -50 -152 -1 -181 -70 -247 -261 -247 l-77 0 -103 -80
c-102 -78 -104 -79 -107 -52 -6 66 -14 94 -33 113 -18 18 -35 19 -311 19 -171
0 -309 4 -330 10 -48 14 -94 53 -119 101 -19 38 -19 58 -17 582 l3 543 24 36
c13 19 40 46 59 59 l36 24 540 3 541 2 44 -22 c25 -13 59 -40 75 -61 l31 -39
6 -241 c3 -133 6 -243 7 -244 1 -1 14 -9 30 -17 34 -17 75 -11 99 16 16 18 18
42 17 252 0 218 -1 234 -24 291 -32 81 -114 164 -193 193 -55 21 -73 22 -427
22 l-370 0 0 196 c0 183 1 196 18 189 75 -30 158 -35 590 -35 l442 0 0 -199 0
-200 26 -20 c15 -12 37 -21 49 -21 15 0 129 81 307 218 l283 217 170 6 c148 5
180 10 244 32 136 48 252 146 315 267 69 130 67 93 64 1163 l-3 962 -29 70
c-60 146 -155 248 -291 311 -94 43 -161 54 -337 54 -135 0 -150 -2 -168 -20
-12 -12 -20 -33 -20 -55 0 -22 8 -43 20 -55 18 -18 34 -20 168 -20 81 0 167
-5 191 -11 120 -27 228 -115 284 -228 l32 -66 3 -949 c2 -847 1 -955 -14
-1005 -42 -148 -169 -262 -324 -291 -29 -5 -119 -10 -201 -10 l-147 0 -234
-179 -233 -178 -5 159 c-5 153 -6 161 -29 179 -22 18 -46 19 -500 19 -493 0
-561 4 -633 41 l-38 19 0 440 c0 284 -4 458 -11 492 -18 86 -58 158 -126 229
l-64 66 3 484 3 484 33 67 c36 74 100 145 165 183 92 53 114 55 724 55 550 0
563 0 583 20 12 12 20 33 20 55 0 22 -8 43 -20 55 -20 20 -33 20 -592 19 -315
-1 -595 -5 -623 -11z"/>
<path d="M3610 4552 c-50 -27 -78 -73 -85 -140 -9 -85 -33 -172 -60 -217 -14
-22 -75 -97 -137 -168 -85 -97 -115 -126 -127 -120 -9 4 -124 9 -256 11 -235
3 -240 2 -257 -19 -17 -20 -18 -59 -18 -505 0 -471 1 -485 20 -504 19 -19 33
-20 253 -20 220 0 235 1 252 20 17 19 18 19 54 1 102 -52 120 -54 547 -59 267
-2 414 0 441 7 60 16 105 51 131 101 22 44 22 49 22 446 0 260 -4 413 -11 431
-15 40 -57 82 -104 104 -35 16 -67 19 -244 19 -190 0 -203 1 -196 18 51 120
65 248 41 361 -21 100 -65 192 -106 221 -45 32 -114 37 -160 12z m122 -287
c14 -82 1 -156 -51 -285 -23 -55 -41 -110 -41 -121 0 -11 11 -31 25 -44 l24
-25 264 0 c191 0 266 -3 275 -12 15 -15 17 -755 2 -778 -8 -13 -65 -15 -412
-15 -392 1 -404 1 -458 23 -31 12 -75 36 -98 53 l-42 31 0 292 0 293 174 197
c183 208 232 281 261 392 8 32 15 75 15 94 0 20 3 40 8 44 11 12 43 -69 54
-139z m-662 -870 l0 -375 -125 0 -125 0 0 375 0 375 125 0 125 0 0 -375z"/>
<path d="M1193 3180 c-33 -13 -49 -47 -62 -130 -6 -41 -16 -103 -22 -137 l-11
-63 -162 0 c-169 -1 -181 -4 -205 -48 -13 -25 -7 -58 17 -84 13 -16 35 -18
169 -18 116 0 153 -3 153 -12 0 -7 -5 -48 -12 -90 l-11 -77 -140 -3 c-138 -3
-139 -3 -163 -31 -32 -37 -30 -62 5 -98 29 -29 30 -29 150 -29 121 0 121 0
116 -22 -13 -60 -35 -207 -35 -235 0 -46 31 -75 77 -71 55 5 69 33 94 191 l22
137 90 0 90 0 -6 -27 c-3 -16 -13 -77 -23 -136 -17 -107 -17 -108 3 -135 32
-43 104 -42 124 1 5 12 20 83 32 157 l23 135 166 5 c190 6 208 13 208 80 0 67
-19 75 -194 78 l-152 3 14 90 15 89 138 0 c126 0 141 2 159 20 30 30 27 83 -6
109 -24 19 -40 21 -147 21 l-119 0 5 28 c31 161 39 244 27 267 -27 50 -104 54
-130 5 -6 -12 -20 -74 -31 -138 -10 -64 -22 -127 -24 -139 -5 -22 -10 -23 -90
-23 -99 0 -93 -14 -65 148 19 114 17 146 -11 169 -22 17 -52 22 -76 13z m203
-542 c-4 -35 -10 -75 -13 -90 l-5 -28 -89 0 c-49 0 -89 1 -89 3 0 1 7 40 15
87 8 47 15 86 15 88 0 1 39 2 86 2 l87 0 -7 -62z"/>
<path d="M2386 1424 c-68 -22 -147 -102 -171 -173 -25 -77 -17 -190 19 -264
47 -97 168 -201 333 -287 l62 -33 53 26 c87 43 202 123 261 182 81 81 111 148
116 258 3 79 0 93 -23 142 -67 136 -229 196 -358 132 l-50 -25 -42 24 c-55 31
-137 38 -200 18z m170 -191 c33 -36 50 -46 74 -46 24 0 41 10 74 46 38 42 48
47 85 47 33 0 49 -7 79 -34 36 -34 37 -36 37 -104 0 -62 -4 -75 -30 -114 -36
-50 -124 -123 -196 -162 l-50 -28 -72 43 c-94 55 -182 143 -196 195 -32 116
14 204 107 204 41 0 49 -4 88 -47z"/>
</g>
</svg>
